<svg width="32" height="32" xml:space="preserve" xmlns="http://www.w3.org/2000/svg">
  <path d="M25.72 24.638a1 1 0 0 0-.861 1.121A17.07 17.07 0 0 1 24.967 29H7.033A17.07 17.07 0 0 1 7 28c0-7.168 4.037-13 9-13 2.044 0 4.054 1.037 5.659 2.919a1 1 0 0 0 1.521-1.298c-1.018-1.193-2.183-2.108-3.429-2.722A6.993 6.993 0 0 0 23 8c0-3.86-3.141-7-7-7S9 4.14 9 8c0 2.486 1.307 4.667 3.265 5.91C8.035 16.001 5 21.52 5 28c0 .76.058 1.484.114 2.093A1 1 0 0 0 6.11 31h19.78a1 1 0 0 0 .996-.907C26.942 29.484 27 28.76 27 28c0-.852-.054-1.693-.159-2.5a.995.995 0 0 0-1.121-.862zM11 8c0-2.757 2.243-5 5-5s5 2.243 5 5-2.243 5-5 5-5-2.243-5-5z"/>
  <path d="M30.73 15.317a1.002 1.002 0 0 0-1.414-.047l-10.004 9.36-4.629-4.332a1 1 0 0 0-1.367 1.46l5.313 4.971a.997.997 0 0 0 1.368 0l10.688-10a1 1 0 0 0 .045-1.412z"/>
</svg>
