<svg width="32.001" height="32.001" xmlns="http://www.w3.org/2000/svg"><g data-name="Group 2"><path data-name="Path 7" d="M31.997.001s-6.923-.186-12.089 3.723a49.183 49.183 0 0 0-7.746 8.433 4.2 4.2 0 0 1-3.718 2.049H5.675a1.1 1.1 0 0 0-.865.385l-.053.066-2.685 3.27a.672.672 0 0 0-.067.082c-.091.121-.115.215.147.258l3.727.578c1.1.174 1.164.328.728.949-.33.486-.953 1.4-.972 1.42-.189.273.751 1.555 2.17 2.978s2.707 2.362 2.982 2.172c.023-.017.931-.642 1.418-.975.621-.433.775-.369.949.731l.578 3.727c.043.261.139.238.26.148.023-.018.051-.043.08-.068l3.271-2.684.066-.053a1.11 1.11 0 0 0 .385-.867v-2.767a4.2 4.2 0 0 1 2.046-3.719 49.2 49.2 0 0 0 8.437-7.744c3.91-5.168 3.72-12.092 3.72-12.092Zm-7.451 11.105a2.582 2.582 0 1 1 0-3.65 2.583 2.583 0 0 1 .002 3.65Z"/><path data-name="Path 8" d="M8.297 28.466c-2.094 1.664-4.838 1.394-6.142 1.381-.013-1.3-.283-4.047 1.383-6.141a.446.446 0 0 0-.629-.627c-3.223 2.447-2.9 8.912-2.9 8.912s6.465.326 8.914-2.9a.446.446 0 0 0-.628-.629Z"/></g></svg>